<svg width="46" height="46" viewBox="0 0 46 46" fill="none" xmlns="http://www.w3.org/2000/svg">
<path d="M37.827 18.3952L29.2245 16.3977L31.7677 5.44507C32.1043 3.99508 33.5528 3.09251 35.0028 3.42925L38.3543 4.20738C39.8043 4.54403 40.7069 5.99249 40.3701 7.44248L37.827 18.3952Z" fill="#01ACFD"/>
<path d="M8.17303 18.3952L16.7756 16.3977L14.2324 5.44498C13.8958 3.99499 12.4473 3.09242 10.9974 3.42916L7.64574 4.20738C6.19575 4.54403 5.29318 5.99249 5.62991 7.44248L8.17303 18.3952Z" fill="#01ACFD"/>
<path d="M26.4851 2.78812H19.5149L20.2119 8.96454e-05H25.7881L26.4851 2.78812Z" fill="#01ACFD"/>
<path d="M20.2122 8.36364H17.4243V2.70591C17.4242 1.21145 18.6357 0 20.1301 0H20.2122V8.36364Z" fill="#01ACFD"/>
<path d="M28.5758 8.36364H25.788V0H25.87C27.3645 0 28.5759 1.21145 28.5759 2.70591V8.36364H28.5758Z" fill="#01ACFD"/>
<path d="M39.0306 18.0774V34.8485H6.96936V18.0774C6.96936 17.0212 7.11652 15.9993 7.39234 15.0319L11.244 13.0399L14.707 7.49054C15.5715 7.21472 16.4815 7.04249 17.4238 6.98885H17.4247L18.9641 7.55721L20.2119 6.96945H27.9226C34.0571 6.96936 39.0306 11.943 39.0306 18.0774Z" fill="#FEA301"/>
<path d="M22.2354 6.96936C20.4452 7.86914 16.1288 10.6636 16.1288 16.6953V34.8485H6.96936V18.0774C6.96936 11.943 11.9429 6.96936 18.0774 6.96936H22.2354Z" fill="#FEA301"/>
<path d="M40.4246 33.4433V40.4459C40.4246 43.5136 37.9374 45.9999 34.8707 45.9999H11.1293C8.06255 45.9999 5.57532 43.5136 5.57532 40.4459V33.4433C5.57532 32.6019 5.95024 31.8475 6.54168 31.3393C7.02764 30.92 7.66077 30.6664 8.3523 30.6664H37.6477C39.1806 30.6664 40.4246 31.9095 40.4246 33.4433Z" fill="#FEA301"/>
<path d="M16.2056 46H11.1293C8.06192 46 5.57532 43.5134 5.57532 40.446V33.4434C5.57532 32.602 5.95024 31.8476 6.54168 31.3394L13.5027 34.8486V41.9271C13.5027 43.6914 14.4702 45.2655 16.2056 46Z" fill="#FEA301"/>
<path d="M33.5202 41.8182C31.7501 41.8182 30.4513 40.1547 30.8805 38.4374L32.1262 33.4546H34.9141L36.1598 38.4374C36.5892 40.1547 35.2903 41.8182 33.5202 41.8182Z" fill="#495560"/>
<path d="M42.5149 33.4601C42.5149 33.8433 42.3594 34.1904 42.1085 34.4412C41.8577 34.693 41.5096 34.8485 41.1264 34.8485H13.5027L10.8905 34.4051V29.3001L16.1288 27.8792H36.934C40.0165 27.8792 42.5149 30.3776 42.5149 33.4601Z" fill="#01ACFD"/>
<path d="M12.5048 33.2082C12.5048 33.9405 12.8862 34.4708 13.5027 34.8485H4.87364C4.10629 34.8485 3.48511 34.2264 3.48511 33.46C3.48511 31.9188 4.10997 30.5238 5.11981 29.5139C6.12975 28.5039 7.52466 27.8791 9.06593 27.8791H16.1287C16.1288 27.8792 12.5048 29.363 12.5048 33.2082Z" fill="#01ACFD"/>
<path d="M25.8342 15.3334H20.1659C19.4216 15.3334 18.8182 14.73 18.8182 13.9857V12.4992C18.8182 11.7549 19.4216 11.1515 20.1659 11.1515H25.8342C26.5785 11.1515 27.1819 11.7549 27.1819 12.4992V13.9857C27.1819 14.73 26.5785 15.3334 25.8342 15.3334Z" fill="#68A2DF"/>
<path d="M15.5199 24.6388C17.0442 24.6388 18.2799 23.6548 18.2799 22.4409C18.2799 21.227 17.0442 20.243 15.5199 20.243C13.9956 20.243 12.7599 21.227 12.7599 22.4409C12.7599 23.6548 13.9956 24.6388 15.5199 24.6388Z" fill="white"/>
<path d="M30.48 24.6388C32.0043 24.6388 33.24 23.6548 33.24 22.4409C33.24 21.227 32.0043 20.243 30.48 20.243C28.9557 20.243 27.72 21.227 27.72 22.4409C27.72 23.6548 28.9557 24.6388 30.48 24.6388Z" fill="white"/>
<path d="M25.6762 19.7949C25.2927 19.7949 24.9819 20.1058 24.9819 20.4891C24.9819 20.8441 24.6931 21.133 24.3381 21.133C23.9831 21.133 23.6943 20.8441 23.6943 20.4891C23.6943 20.1057 23.3834 19.7949 23.0001 19.7949C22.6167 19.7949 22.3058 20.1058 22.3058 20.4891C22.3058 20.8441 22.017 21.133 21.662 21.133C21.3071 21.133 21.0182 20.8441 21.0182 20.4891C21.0182 20.1057 20.7073 19.7949 20.324 19.7949C19.9406 19.7949 19.6298 20.1058 19.6298 20.4891C19.6298 21.6098 20.5415 22.5214 21.6621 22.5214C22.1743 22.5214 22.6424 22.3306 23.0002 22.0168C23.358 22.3306 23.8262 22.5214 24.3384 22.5214C25.459 22.5214 26.3707 21.6097 26.3707 20.4891C26.3705 20.1057 26.0596 19.7949 25.6762 19.7949Z" fill="#495560"/>
<path d="M18.5791 20.0897C18.1956 20.0897 17.8849 19.7788 17.8849 19.3955C17.8849 19.0757 17.6247 18.8155 17.3049 18.8155C16.9852 18.8155 16.725 19.0757 16.725 19.3955C16.725 19.7789 16.4141 20.0897 16.0308 20.0897C15.6474 20.0897 15.3365 19.7788 15.3365 19.3955C15.3365 18.3101 16.2196 17.427 17.305 17.427C18.3904 17.427 19.2735 18.3101 19.2735 19.3955C19.2734 19.7788 18.9626 20.0897 18.5791 20.0897Z" fill="#495560"/>
<path d="M29.969 20.0897C29.5855 20.0897 29.2748 19.7788 29.2748 19.3955C29.2748 19.0757 29.0146 18.8155 28.6948 18.8155C28.3751 18.8155 28.1149 19.0757 28.1149 19.3955C28.1149 19.7789 27.804 20.0897 27.4207 20.0897C27.0372 20.0897 26.7264 19.7788 26.7264 19.3955C26.7264 18.3101 27.6095 17.427 28.6949 17.427C29.7803 17.427 30.6634 18.3101 30.6634 19.3955C30.6632 19.7788 30.3524 20.0897 29.969 20.0897Z" fill="#495560"/>
</svg>
