<svg width="202" height="62" viewBox="0 0 202 62" fill="none" xmlns="http://www.w3.org/2000/svg">
<path d="M50.9842 24.7936L39.3895 22.1013L42.8173 7.33901C43.271 5.38468 45.2233 4.16817 47.1776 4.62203L51.6949 5.67082C53.6493 6.12456 54.8658 8.07683 54.4119 10.0312L50.9842 24.7936Z" fill="#01ACFD"/>
<path d="M11.0158 24.7936L22.6105 22.1013L19.1828 7.33889C18.7291 5.38455 16.7768 4.16805 14.8225 4.62191L10.3051 5.67082C8.35074 6.12456 7.13423 8.07683 7.58809 10.0312L11.0158 24.7936Z" fill="#01ACFD"/>
<path d="M35.6973 3.7579H26.3026L27.2421 0.000120163H34.7579L35.6973 3.7579Z" fill="#01ACFD"/>
<path d="M27.2425 11.2727H23.4849V3.6471C23.4848 1.63283 25.1176 0 27.1319 0H27.2425V11.2727Z" fill="#01ACFD"/>
<path d="M38.5152 11.2727H34.7577V0H34.8682C36.8825 0 38.5153 1.63283 38.5153 3.6471V11.2727H38.5152Z" fill="#01ACFD"/>
<path d="M52.6065 24.3652V46.9697H9.39348V24.3652C9.39348 22.9416 9.59183 21.5643 9.96359 20.2604L15.155 17.5755L19.8224 10.0959C20.9877 9.72419 22.2142 9.49205 23.4843 9.41976H23.4855L25.5603 10.1858L27.2421 9.3936H37.6348C45.903 9.39348 52.6065 16.0971 52.6065 24.3652Z" fill="#FEA301"/>
<path d="M29.9695 9.39348C27.5566 10.6062 21.7389 14.3727 21.7389 22.5024V46.9697H9.39348V24.3651C9.39348 16.0971 16.097 9.39348 24.3651 9.39348H29.9695Z" fill="#FEA301"/>
<path d="M54.4854 45.0758V54.5141C54.4854 58.6487 51.133 61.9999 46.9996 61.9999H15.0004C10.8669 61.9999 7.51459 58.6487 7.51459 54.5141V45.0758C7.51459 43.9417 8.01991 42.925 8.81707 42.2399C9.47207 41.6748 10.3254 41.3329 11.2575 41.3329H50.7426C52.8086 41.3329 54.4854 43.0085 54.4854 45.0758Z" fill="#FEA301"/>
<path d="M21.8424 62H15.0004C10.8661 62 7.51459 58.6485 7.51459 54.5142V45.0759C7.51459 43.9418 8.01991 42.9251 8.81707 42.24L18.1993 46.9698V56.5105C18.1993 58.8884 19.5034 61.0101 21.8424 62Z" fill="#FEA301"/>
<path d="M45.1795 56.3637C42.7937 56.3637 41.043 54.1215 41.6216 51.8069L43.3006 45.091H47.0581L48.7371 51.8069C49.3159 54.1215 47.5653 56.3637 45.1795 56.3637Z" fill="#495560"/>
<path d="M57.3026 45.0983C57.3026 45.6149 57.093 46.0827 56.7549 46.4208C56.4168 46.7601 55.9477 46.9697 55.4313 46.9697H18.1993L14.6785 46.3721V39.4915L21.7389 37.5764H49.7807C53.9353 37.5764 57.3026 40.9437 57.3026 45.0983Z" fill="#01ACFD"/>
<path d="M16.8543 44.7589C16.8543 45.7458 17.3684 46.4606 18.1993 46.9697H6.56885C5.53458 46.9697 4.69734 46.1313 4.69734 45.0982C4.69734 43.021 5.53955 41.1408 6.90064 39.7795C8.26186 38.4183 10.142 37.5762 12.2193 37.5762H21.7387C21.7389 37.5764 16.8543 39.5762 16.8543 44.7589Z" fill="#01ACFD"/>
<path d="M34.82 20.6667H27.1801C26.177 20.6667 25.3637 19.8534 25.3637 18.8503V16.8467C25.3637 15.8435 26.177 15.0303 27.1801 15.0303H34.82C35.8232 15.0303 36.6364 15.8435 36.6364 16.8467V18.8503C36.6364 19.8534 35.8232 20.6667 34.82 20.6667Z" fill="#68A2DF"/>
<path d="M20.9182 33.2089C22.9727 33.2089 24.6382 31.8825 24.6382 30.2464C24.6382 28.6103 22.9727 27.284 20.9182 27.284C18.8637 27.284 17.1982 28.6103 17.1982 30.2464C17.1982 31.8825 18.8637 33.2089 20.9182 33.2089Z" fill="white"/>
<path d="M41.0818 33.2089C43.1363 33.2089 44.8018 31.8825 44.8018 30.2464C44.8018 28.6103 43.1363 27.284 41.0818 27.284C39.0273 27.284 37.3618 28.6103 37.3618 30.2464C37.3618 31.8825 39.0273 33.2089 41.0818 33.2089Z" fill="white"/>
<path d="M34.607 26.6801C34.0902 26.6801 33.6713 27.0991 33.6713 27.6158C33.6713 28.0942 33.282 28.4836 32.8036 28.4836C32.325 28.4836 31.9358 28.0942 31.9358 27.6158C31.9358 27.099 31.5168 26.6801 31.0001 26.6801C30.4834 26.6801 30.0644 27.0991 30.0644 27.6158C30.0644 28.0942 29.6751 28.4836 29.1967 28.4836C28.7182 28.4836 28.3289 28.0942 28.3289 27.6158C28.3289 27.099 27.9099 26.6801 27.3932 26.6801C26.8765 26.6801 26.4575 27.0991 26.4575 27.6158C26.4575 29.1262 27.6864 30.3549 29.1968 30.3549C29.8871 30.3549 30.518 30.0977 31.0003 29.6749C31.4825 30.0977 32.1136 30.3549 32.8039 30.3549C34.3143 30.3549 35.5432 29.1261 35.5432 27.6158C35.5428 27.099 35.1238 26.6801 34.607 26.6801Z" fill="#495560"/>
<path d="M25.0416 27.0774C24.5247 27.0774 24.1059 26.6584 24.1059 26.1417C24.1059 25.7107 23.7552 25.3601 23.3242 25.3601C22.8932 25.3601 22.5426 25.7107 22.5426 26.1417C22.5426 26.6585 22.1236 27.0774 21.6069 27.0774C21.0902 27.0774 20.6712 26.6584 20.6712 26.1417C20.6712 24.6788 21.8614 23.4886 23.3243 23.4886C24.7873 23.4886 25.9775 24.6788 25.9775 26.1417C25.9774 26.6584 25.5584 27.0774 25.0416 27.0774Z" fill="#495560"/>
<path d="M40.3931 27.0774C39.8763 27.0774 39.4574 26.6584 39.4574 26.1417C39.4574 25.7107 39.1067 25.3601 38.6758 25.3601C38.2448 25.3601 37.8941 25.7107 37.8941 26.1417C37.8941 26.6585 37.4751 27.0774 36.9584 27.0774C36.4416 27.0774 36.0227 26.6584 36.0227 26.1417C36.0227 24.6788 37.213 23.4886 38.6759 23.4886C40.1388 23.4886 41.329 24.6788 41.329 26.1417C41.3288 26.6584 40.9099 27.0774 40.3931 27.0774Z" fill="#495560"/>
<path d="M82.6 44.32C81.1067 44.32 79.7627 44.1387 78.568 43.776C77.3733 43.392 76.232 42.7307 75.144 41.792C74.8667 41.5573 74.6533 41.2907 74.504 40.992C74.3547 40.6933 74.28 40.3947 74.28 40.096C74.28 39.6053 74.4507 39.1787 74.792 38.816C75.1547 38.432 75.6027 38.24 76.136 38.24C76.5413 38.24 76.904 38.368 77.224 38.624C78.0347 39.2853 78.8347 39.7867 79.624 40.128C80.4347 40.4693 81.4267 40.64 82.6 40.64C83.3893 40.64 84.1147 40.5227 84.776 40.288C85.4373 40.032 85.9707 39.7013 86.376 39.296C86.7813 38.8693 86.984 38.3893 86.984 37.856C86.984 37.216 86.792 36.672 86.408 36.224C86.024 35.776 85.4373 35.4027 84.648 35.104C83.8587 34.784 82.856 34.5387 81.64 34.368C80.488 34.1973 79.4747 33.9413 78.6 33.6C77.7253 33.2373 76.9893 32.7893 76.392 32.256C75.816 31.7013 75.3787 31.0613 75.08 30.336C74.7813 29.5893 74.632 28.7573 74.632 27.84C74.632 26.4533 74.984 25.2693 75.688 24.288C76.4133 23.3067 77.384 22.56 78.6 22.048C79.816 21.536 81.16 21.28 82.632 21.28C84.0187 21.28 85.2987 21.4933 86.472 21.92C87.6667 22.3253 88.6373 22.848 89.384 23.488C90.0027 23.9787 90.312 24.544 90.312 25.184C90.312 25.6533 90.1307 26.08 89.768 26.464C89.4053 26.848 88.9787 27.04 88.488 27.04C88.168 27.04 87.88 26.944 87.624 26.752C87.2827 26.4533 86.824 26.176 86.248 25.92C85.672 25.6427 85.064 25.4187 84.424 25.248C83.784 25.056 83.1867 24.96 82.632 24.96C81.7147 24.96 80.936 25.0773 80.296 25.312C79.6773 25.5467 79.208 25.8667 78.888 26.272C78.568 26.6773 78.408 27.1467 78.408 27.68C78.408 28.32 78.5893 28.8533 78.952 29.28C79.336 29.6853 79.88 30.016 80.584 30.272C81.288 30.5067 82.1307 30.72 83.112 30.912C84.392 31.1467 85.512 31.424 86.472 31.744C87.4533 32.064 88.264 32.48 88.904 32.992C89.544 33.4827 90.024 34.112 90.344 34.88C90.664 35.6267 90.824 36.544 90.824 37.632C90.824 39.0187 90.44 40.2133 89.672 41.216C88.904 42.2187 87.8907 42.9867 86.632 43.52C85.3947 44.0533 84.0507 44.32 82.6 44.32ZM110.174 22.688C110.728 22.9653 111.048 23.4027 111.134 24C111.24 24.5973 111.091 25.1413 110.686 25.632C110.408 26.016 110.046 26.2293 109.598 26.272C109.171 26.3147 108.734 26.2293 108.286 26.016C107.774 25.7813 107.23 25.6 106.654 25.472C106.099 25.344 105.512 25.28 104.894 25.28C103.742 25.28 102.707 25.4613 101.79 25.824C100.894 26.1867 100.126 26.7093 99.4858 27.392C98.8458 28.0533 98.3551 28.8427 98.0138 29.76C97.6938 30.6773 97.5338 31.6907 97.5338 32.8C97.5338 34.1013 97.7151 35.232 98.0778 36.192C98.4618 37.152 98.9844 37.952 99.6458 38.592C100.307 39.232 101.086 39.712 101.982 40.032C102.878 40.3307 103.848 40.48 104.894 40.48C105.47 40.48 106.046 40.4267 106.622 40.32C107.198 40.2133 107.752 40.0213 108.286 39.744C108.734 39.5307 109.171 39.456 109.598 39.52C110.046 39.584 110.419 39.808 110.718 40.192C111.144 40.7253 111.294 41.28 111.166 41.856C111.059 42.4107 110.739 42.816 110.206 43.072C109.651 43.3493 109.075 43.584 108.478 43.776C107.902 43.9467 107.315 44.0747 106.718 44.16C106.12 44.2667 105.512 44.32 104.894 44.32C103.358 44.32 101.896 44.0747 100.51 43.584C99.1444 43.0933 97.9178 42.368 96.8298 41.408C95.7631 40.448 94.9204 39.2533 94.3018 37.824C93.6831 36.3733 93.3738 34.6987 93.3738 32.8C93.3738 31.1573 93.6511 29.6427 94.2057 28.256C94.7818 26.8693 95.5818 25.6747 96.6058 24.672C97.6511 23.648 98.8778 22.8587 100.286 22.304C101.694 21.728 103.23 21.44 104.894 21.44C105.832 21.44 106.75 21.5467 107.646 21.76C108.542 21.9733 109.384 22.2827 110.174 22.688ZM116.604 21.6C117.116 21.6 117.564 21.792 117.948 22.176C118.354 22.5387 118.556 22.9973 118.556 23.552V42.048C118.556 42.6027 118.354 43.072 117.948 43.456C117.543 43.8187 117.074 44 116.54 44C115.943 44 115.463 43.8187 115.1 43.456C114.738 43.072 114.556 42.6027 114.556 42.048V23.552C114.556 22.9973 114.748 22.5387 115.132 22.176C115.516 21.792 116.007 21.6 116.604 21.6ZM130.78 21.6C131.378 21.6 131.858 21.792 132.22 22.176C132.583 22.5387 132.764 22.9973 132.764 23.552V42.048C132.764 42.6027 132.572 43.072 132.188 43.456C131.826 43.8187 131.335 44 130.716 44C130.204 44 129.746 43.8187 129.34 43.456C128.956 43.072 128.764 42.6027 128.764 42.048V23.552C128.764 22.9973 128.967 22.5387 129.372 22.176C129.778 21.792 130.247 21.6 130.78 21.6ZM116.508 30.912H130.78V34.592H116.508V30.912ZM158.164 32.8C158.164 34.4 157.898 35.8933 157.364 37.28C156.831 38.6667 156.074 39.8933 155.092 40.96C154.132 42.0053 152.98 42.8267 151.636 43.424C150.314 44.0213 148.863 44.32 147.284 44.32C145.706 44.32 144.255 44.0213 142.932 43.424C141.61 42.8267 140.458 42.0053 139.476 40.96C138.516 39.8933 137.77 38.6667 137.236 37.28C136.703 35.8933 136.436 34.4 136.436 32.8C136.436 31.2 136.703 29.7067 137.236 28.32C137.77 26.9333 138.516 25.7173 139.476 24.672C140.458 23.6053 141.61 22.7733 142.932 22.176C144.255 21.5787 145.706 21.28 147.284 21.28C148.863 21.28 150.314 21.5787 151.636 22.176C152.98 22.7733 154.132 23.6053 155.092 24.672C156.074 25.7173 156.831 26.9333 157.364 28.32C157.898 29.7067 158.164 31.2 158.164 32.8ZM154.004 32.8C154.004 31.3707 153.716 30.08 153.14 28.928C152.564 27.7547 151.775 26.8267 150.772 26.144C149.77 25.4613 148.607 25.12 147.284 25.12C145.962 25.12 144.799 25.4613 143.796 26.144C142.794 26.8267 142.004 27.744 141.428 28.896C140.874 30.048 140.596 31.3493 140.596 32.8C140.596 34.2293 140.874 35.5307 141.428 36.704C142.004 37.856 142.794 38.7733 143.796 39.456C144.799 40.1387 145.962 40.48 147.284 40.48C148.607 40.48 149.77 40.1387 150.772 39.456C151.775 38.7733 152.564 37.856 153.14 36.704C153.716 35.5307 154.004 34.2293 154.004 32.8ZM182.446 32.8C182.446 34.4 182.179 35.8933 181.646 37.28C181.112 38.6667 180.355 39.8933 179.374 40.96C178.414 42.0053 177.262 42.8267 175.918 43.424C174.595 44.0213 173.144 44.32 171.566 44.32C169.987 44.32 168.536 44.0213 167.214 43.424C165.891 42.8267 164.739 42.0053 163.758 40.96C162.798 39.8933 162.051 38.6667 161.518 37.28C160.984 35.8933 160.718 34.4 160.718 32.8C160.718 31.2 160.984 29.7067 161.518 28.32C162.051 26.9333 162.798 25.7173 163.758 24.672C164.739 23.6053 165.891 22.7733 167.214 22.176C168.536 21.5787 169.987 21.28 171.566 21.28C173.144 21.28 174.595 21.5787 175.918 22.176C177.262 22.7733 178.414 23.6053 179.374 24.672C180.355 25.7173 181.112 26.9333 181.646 28.32C182.179 29.7067 182.446 31.2 182.446 32.8ZM178.286 32.8C178.286 31.3707 177.998 30.08 177.422 28.928C176.846 27.7547 176.056 26.8267 175.054 26.144C174.051 25.4613 172.888 25.12 171.566 25.12C170.243 25.12 169.08 25.4613 168.078 26.144C167.075 26.8267 166.286 27.744 165.71 28.896C165.155 30.048 164.878 31.3493 164.878 32.8C164.878 34.2293 165.155 35.5307 165.71 36.704C166.286 37.856 167.075 38.7733 168.078 39.456C169.08 40.1387 170.243 40.48 171.566 40.48C172.888 40.48 174.051 40.1387 175.054 39.456C176.056 38.7733 176.846 37.856 177.422 36.704C177.998 35.5307 178.286 34.2293 178.286 32.8ZM198.471 40.256C199.025 40.256 199.484 40.4373 199.847 40.8C200.231 41.1413 200.423 41.5893 200.423 42.144C200.423 42.6773 200.231 43.1253 199.847 43.488C199.484 43.8293 199.025 44 198.471 44H188.071C187.516 44 187.047 43.8187 186.663 43.456C186.3 43.072 186.119 42.6027 186.119 42.048V23.552C186.119 22.9973 186.311 22.5387 186.695 22.176C187.079 21.792 187.569 21.6 188.167 21.6C188.679 21.6 189.127 21.792 189.511 22.176C189.916 22.5387 190.119 22.9973 190.119 23.552V40.8L189.415 40.256H198.471Z" fill="#111111"/>
</svg>
